<?xml version="1.0" encoding="UTF-8" standalone="no"?><!DOCTYPE svg PUBLIC "-//W3C//DTD SVG 1.1//EN" "http://www.w3.org/Graphics/SVG/1.1/DTD/svg11.dtd"><!-- Generated by graphviz version 2.40.1 (20161225.0304)
 --><!-- Title: g18231 Pages: 1 --><svg xmlns="http://www.w3.org/2000/svg" xmlns:xlink="http://www.w3.org/1999/xlink" width="1836pt" height="2627pt" viewBox="0.00 0.00 1835.84 2627.28">
<g id="graph0" class="graph" transform="scale(1 1) rotate(0) translate(4 2623.276)">
<title>g18231</title>
<polygon fill="#ffffff" stroke="transparent" points="-4,4 -4,-2623.276 1831.8387,-2623.276 1831.8387,4 -4,4"/>
<!-- x18231 -->
<g id="node1" class="node">
<title>x18231</title>
<ellipse fill="none" stroke="#000000" cx="1006.7629" cy="-2589.8603" rx="146.1265" ry="29.3315"/>
<text text-anchor="middle" x="1006.7629" y="-2594.0603" font-family="Times,serif" font-size="14.00" fill="#000000">Carl Friedrich Gauß</text>
<text text-anchor="middle" x="1006.7629" y="-2577.2603" font-family="Times,serif" font-size="14.00" fill="#000000">Ph.D. Universität Helmstedt 1799</text>
</g>
<!-- x18230 -->
<g id="node2" class="node">
<title>x18230</title>
<ellipse fill="none" stroke="#000000" cx="1006.7629" cy="-2495.029" rx="218.8788" ry="29.3315"/>
<text text-anchor="middle" x="1006.7629" y="-2499.229" font-family="Times,serif" font-size="14.00" fill="#000000">Johann Friedrich Pfaff</text>
<text text-anchor="middle" x="1006.7629" y="-2482.429" font-family="Times,serif" font-size="14.00" fill="#000000">Dr. phil. Georg-August-Universität Göttingen 1786</text>
</g>
<!-- x18231&#45;&gt;x18230 -->
<g id="edge1" class="edge">
<title>x18231-&gt;x18230</title>
<path fill="none" stroke="#000000" d="M1006.7629,-2560.3749C1006.7629,-2552.2575 1006.7629,-2543.3179 1006.7629,-2534.7257"/>
<polygon fill="#000000" stroke="#000000" points="1010.263,-2534.4961 1006.7629,-2524.4962 1003.263,-2534.4962 1010.263,-2534.4961"/>
</g>
<!-- x66476 -->
<g id="node3" class="node">
<title>x66476</title>
<ellipse fill="none" stroke="#000000" cx="866.7629" cy="-2400.1977" rx="135.7246" ry="29.3315"/>
<text text-anchor="middle" x="866.7629" y="-2404.3977" font-family="Times,serif" font-size="14.00" fill="#000000">Abraham Gotthelf Kästner</text>
<text text-anchor="middle" x="866.7629" y="-2387.5977" font-family="Times,serif" font-size="14.00" fill="#000000">Ph.D. Universität Leipzig 1739</text>
</g>
<!-- x18230&#45;&gt;x66476 -->
<g id="edge2" class="edge">
<title>x18230-&gt;x66476</title>
<path fill="none" stroke="#000000" d="M963.9975,-2466.0612C949.0709,-2455.9504 932.1868,-2444.5137 916.7267,-2434.0415"/>
<polygon fill="#000000" stroke="#000000" points="918.5479,-2431.0478 908.3056,-2428.3374 914.6222,-2436.8434 918.5479,-2431.0478"/>
</g>
<!-- x127710 -->
<g id="node4" class="node">
<title>x127710</title>
<ellipse fill="none" stroke="#000000" cx="1197.7629" cy="-2400.1977" rx="126.4788" ry="29.3315"/>
<text text-anchor="middle" x="1197.7629" y="-2404.3977" font-family="Times,serif" font-size="14.00" fill="#000000">Johann Elert Bode</text>
<text text-anchor="middle" x="1197.7629" y="-2387.5977" font-family="Times,serif" font-size="14.00" fill="#000000"> Handelsakademie Hamburg </text>
</g>
<!-- x18230&#45;&gt;x127710 -->
<g id="edge3" class="edge">
<title>x18230-&gt;x127710</title>
<path fill="none" stroke="#000000" d="M1064.0692,-2466.5765C1086.3785,-2455.5 1112.0171,-2442.7704 1134.8367,-2431.4405"/>
<polygon fill="#000000" stroke="#000000" points="1136.6919,-2434.4271 1144.0922,-2426.8452 1133.5789,-2428.1574 1136.6919,-2434.4271"/>
</g>
<!-- x57670 -->
<g id="node5" class="node">
<title>x57670</title>
<ellipse fill="none" stroke="#000000" cx="764.7629" cy="-2305.3665" rx="245.5557" ry="29.3315"/>
<text text-anchor="middle" x="764.7629" y="-2309.5665" font-family="Times,serif" font-size="14.00" fill="#000000">Christian August Hausen</text>
<text text-anchor="middle" x="764.7629" y="-2292.7665" font-family="Times,serif" font-size="14.00" fill="#000000">Dr. phil. Martin-Luther-Universität Halle-Wittenberg 1713</text>
</g>
<!-- x66476&#45;&gt;x57670 -->
<g id="edge4" class="edge">
<title>x66476-&gt;x57670</title>
<path fill="none" stroke="#000000" d="M835.8827,-2371.4879C825.7855,-2362.1004 814.4353,-2351.5478 803.8171,-2341.6759"/>
<polygon fill="#000000" stroke="#000000" points="805.9501,-2338.88 796.2431,-2334.6342 801.1837,-2344.0066 805.9501,-2338.88"/>
</g>
<!-- x127668 -->
<g id="node6" class="node">
<title>x127668</title>
<ellipse fill="none" stroke="#000000" cx="1260.7629" cy="-2305.3665" rx="220.7138" ry="29.3315"/>
<text text-anchor="middle" x="1260.7629" y="-2309.5665" font-family="Times,serif" font-size="14.00" fill="#000000">Johann Georg Büsch</text>
<text text-anchor="middle" x="1260.7629" y="-2292.7665" font-family="Times,serif" font-size="14.00" fill="#000000">Magister Georg-August-Universität Göttingen 1752</text>
</g>
<!-- x127710&#45;&gt;x127668 -->
<g id="edge5" class="edge">
<title>x127710-&gt;x127668</title>
<path fill="none" stroke="#000000" d="M1217.179,-2370.9714C1222.9326,-2362.3108 1229.3201,-2352.6959 1235.3917,-2343.5566"/>
<polygon fill="#000000" stroke="#000000" points="1238.4668,-2345.2529 1241.0851,-2334.9867 1232.6361,-2341.3794 1238.4668,-2345.2529"/>
</g>
<!-- x72669 -->
<g id="node7" class="node">
<title>x72669</title>
<ellipse fill="none" stroke="#000000" cx="309.7629" cy="-2210.5352" rx="158.2545" ry="29.3315"/>
<text text-anchor="middle" x="309.7629" y="-2214.7352" font-family="Times,serif" font-size="14.00" fill="#000000">Johann Christoph Wichmannshausen</text>
<text text-anchor="middle" x="309.7629" y="-2197.9352" font-family="Times,serif" font-size="14.00" fill="#000000">Ph.D. Universität Leipzig 1685</text>
</g>
<!-- x57670&#45;&gt;x72669 -->
<g id="edge6" class="edge">
<title>x57670-&gt;x72669</title>
<path fill="none" stroke="#000000" d="M642.2327,-2279.8287C574.7609,-2265.7662 491.5118,-2248.4154 425.1966,-2234.5939"/>
<polygon fill="#000000" stroke="#000000" points="425.6259,-2231.1083 415.1221,-2232.4942 424.1976,-2237.961 425.6259,-2231.1083"/>
</g>
<!-- x128986 -->
<g id="node8" class="node">
<title>x128986</title>
<ellipse fill="none" stroke="#000000" cx="764.7629" cy="-2210.5352" rx="275.526" ry="29.3315"/>
<text text-anchor="middle" x="764.7629" y="-2214.7352" font-family="Times,serif" font-size="14.00" fill="#000000">Johann Andreas Planer</text>
<text text-anchor="middle" x="764.7629" y="-2197.9352" font-family="Times,serif" font-size="14.00" fill="#000000">Magister artium Martin-Luther-Universität Halle-Wittenberg 1686</text>
</g>
<!-- x57670&#45;&gt;x128986 -->
<g id="edge7" class="edge">
<title>x57670-&gt;x128986</title>
<path fill="none" stroke="#000000" d="M764.7629,-2275.8811C764.7629,-2267.7637 764.7629,-2258.824 764.7629,-2250.2319"/>
<polygon fill="#000000" stroke="#000000" points="768.263,-2250.0023 764.7629,-2240.0023 761.263,-2250.0024 768.263,-2250.0023"/>
</g>
<!-- x60782 -->
<g id="node9" class="node">
<title>x60782</title>
<ellipse fill="none" stroke="#000000" cx="1267.7629" cy="-2210.5352" rx="202.2619" ry="29.3315"/>
<text text-anchor="middle" x="1267.7629" y="-2214.7352" font-family="Times,serif" font-size="14.00" fill="#000000">Johann Andreas Segner</text>
<text text-anchor="middle" x="1267.7629" y="-2197.9352" font-family="Times,serif" font-size="14.00" fill="#000000">D.Phil. Friedrich-Schiller-Universität Jena 1725</text>
</g>
<!-- x127668&#45;&gt;x60782 -->
<g id="edge8" class="edge">
<title>x127668-&gt;x60782</title>
<path fill="none" stroke="#000000" d="M1262.9393,-2275.8811C1263.5385,-2267.7637 1264.1984,-2258.824 1264.8327,-2250.2319"/>
<polygon fill="#000000" stroke="#000000" points="1268.342,-2250.2329 1265.5878,-2240.0023 1261.361,-2249.7175 1268.342,-2250.2329"/>
</g>
<!-- x21235 -->
<g id="node10" class="node">
<title>x21235</title>
<ellipse fill="none" stroke="#000000" cx="303.7629" cy="-2115.7039" rx="135.7246" ry="29.3315"/>
<text text-anchor="middle" x="303.7629" y="-2119.9039" font-family="Times,serif" font-size="14.00" fill="#000000">Otto Mencke</text>
<text text-anchor="middle" x="303.7629" y="-2103.1039" font-family="Times,serif" font-size="14.00" fill="#000000">Ph.D. Universität Leipzig 1665</text>
</g>
<!-- x72669&#45;&gt;x21235 -->
<g id="edge9" class="edge">
<title>x72669-&gt;x21235</title>
<path fill="none" stroke="#000000" d="M307.8973,-2181.0498C307.3837,-2172.9324 306.8181,-2163.9927 306.2745,-2155.4006"/>
<polygon fill="#000000" stroke="#000000" points="309.7518,-2154.9301 305.6273,-2145.171 302.7658,-2155.3721 309.7518,-2154.9301"/>
</g>
<!-- x128046 -->
<g id="node11" class="node">
<title>x128046</title>
<ellipse fill="none" stroke="#000000" cx="764.7629" cy="-2115.7039" rx="275.526" ry="29.3315"/>
<text text-anchor="middle" x="764.7629" y="-2119.9039" font-family="Times,serif" font-size="14.00" fill="#000000">Johann Pasch</text>
<text text-anchor="middle" x="764.7629" y="-2103.1039" font-family="Times,serif" font-size="14.00" fill="#000000">Magister artium Martin-Luther-Universität Halle-Wittenberg 1683</text>
</g>
<!-- x128986&#45;&gt;x128046 -->
<g id="edge10" class="edge">
<title>x128986-&gt;x128046</title>
<path fill="none" stroke="#000000" d="M764.7629,-2181.0498C764.7629,-2172.9324 764.7629,-2163.9927 764.7629,-2155.4006"/>
<polygon fill="#000000" stroke="#000000" points="768.263,-2155.171 764.7629,-2145.171 761.263,-2155.1711 768.263,-2155.171"/>
</g>
<!-- x125886 -->
<g id="node12" class="node">
<title>x125886</title>
<ellipse fill="none" stroke="#000000" cx="1273.7629" cy="-2115.7039" rx="215.0996" ry="29.3315"/>
<text text-anchor="middle" x="1273.7629" y="-2119.9039" font-family="Times,serif" font-size="14.00" fill="#000000">Georg Erhard Hamberger</text>
<text text-anchor="middle" x="1273.7629" y="-2103.1039" font-family="Times,serif" font-size="14.00" fill="#000000">Mag. phil. Friedrich-Schiller-Universität Jena 1684</text>
</g>
<!-- x60782&#45;&gt;x125886 -->
<g id="edge11" class="edge">
<title>x60782-&gt;x125886</title>
<path fill="none" stroke="#000000" d="M1269.6284,-2181.0498C1270.142,-2172.9324 1270.7076,-2163.9927 1271.2513,-2155.4006"/>
<polygon fill="#000000" stroke="#000000" points="1274.76,-2155.3721 1271.8985,-2145.171 1267.7739,-2154.9301 1274.76,-2155.3721"/>
</g>
<!-- x137705 -->
<g id="node13" class="node">
<title>x137705</title>
<ellipse fill="none" stroke="#000000" cx="290.7629" cy="-2020.8726" rx="212.6756" ry="29.3315"/>
<text text-anchor="middle" x="290.7629" y="-2025.0726" font-family="Times,serif" font-size="14.00" fill="#000000">Jakob Thomasius</text>
<text text-anchor="middle" x="290.7629" y="-2008.2726" font-family="Times,serif" font-size="14.00" fill="#000000">Magister der Philosophie Universität Leipzig 1643</text>
</g>
<!-- x21235&#45;&gt;x137705 -->
<g id="edge12" class="edge">
<title>x21235-&gt;x137705</title>
<path fill="none" stroke="#000000" d="M299.7209,-2086.2185C298.5958,-2078.0119 297.3556,-2068.9649 296.1659,-2060.2862"/>
<polygon fill="#000000" stroke="#000000" points="299.6282,-2059.7717 294.8024,-2050.3398 292.6931,-2060.7225 299.6282,-2059.7717"/>
</g>
<!-- x127962 -->
<g id="node14" class="node">
<title>x127962</title>
<ellipse fill="none" stroke="#000000" cx="775.7629" cy="-2020.8726" rx="247.3908" ry="29.3315"/>
<text text-anchor="middle" x="775.7629" y="-2025.0726" font-family="Times,serif" font-size="14.00" fill="#000000">Michael d. J. Walther</text>
<text text-anchor="middle" x="775.7629" y="-2008.2726" font-family="Times,serif" font-size="14.00" fill="#000000">Magister Martin-Luther-Universität Halle-Wittenberg 1656</text>
</g>
<!-- x128046&#45;&gt;x127962 -->
<g id="edge13" class="edge">
<title>x128046-&gt;x127962</title>
<path fill="none" stroke="#000000" d="M768.183,-2086.2185C769.135,-2078.0119 770.1844,-2068.9649 771.1911,-2060.2862"/>
<polygon fill="#000000" stroke="#000000" points="774.6692,-2060.6765 772.3448,-2050.3398 767.7158,-2059.8698 774.6692,-2060.6765"/>
</g>
<!-- x143630 -->
<g id="node15" class="node">
<title>x143630</title>
<ellipse fill="none" stroke="#000000" cx="276.7629" cy="-1926.0413" rx="212.6756" ry="29.3315"/>
<text text-anchor="middle" x="276.7629" y="-1930.2413" font-family="Times,serif" font-size="14.00" fill="#000000">Friedrich Leibniz</text>
<text text-anchor="middle" x="276.7629" y="-1913.4413" font-family="Times,serif" font-size="14.00" fill="#000000">Magister der Philosophie Universität Leipzig 1622</text>
</g>
<!-- x137705&#45;&gt;x143630 -->
<g id="edge14" class="edge">
<title>x137705-&gt;x143630</title>
<path fill="none" stroke="#000000" d="M286.4099,-1991.3872C285.1984,-1983.1806 283.8628,-1974.1336 282.5815,-1965.4549"/>
<polygon fill="#000000" stroke="#000000" points="286.0362,-1964.8901 281.1131,-1955.5085 279.1112,-1965.9124 286.0362,-1964.8901"/>
</g>
<!-- x127801 -->
<g id="node16" class="node">
<title>x127801</title>
<ellipse fill="none" stroke="#000000" cx="783.7629" cy="-1926.0413" rx="275.526" ry="29.3315"/>
<text text-anchor="middle" x="783.7629" y="-1930.2413" font-family="Times,serif" font-size="14.00" fill="#000000">Aegidius Strauch</text>
<text text-anchor="middle" x="783.7629" y="-1913.4413" font-family="Times,serif" font-size="14.00" fill="#000000">Magister artium Martin-Luther-Universität Halle-Wittenberg 1633</text>
</g>
<!-- x127962&#45;&gt;x127801 -->
<g id="edge15" class="edge">
<title>x127962-&gt;x127801</title>
<path fill="none" stroke="#000000" d="M778.2503,-1991.3872C778.9351,-1983.2698 779.6892,-1974.3302 780.414,-1965.738"/>
<polygon fill="#000000" stroke="#000000" points="783.9239,-1965.7673 781.277,-1955.5085 776.9487,-1965.1788 783.9239,-1965.7673"/>
</g>
<!-- x127734 -->
<g id="node17" class="node">
<title>x127734</title>
<ellipse fill="none" stroke="#000000" cx="783.7629" cy="-1831.21" rx="237.666" ry="29.3315"/>
<text text-anchor="middle" x="783.7629" y="-1835.41" font-family="Times,serif" font-size="14.00" fill="#000000">Nicolaus Zapf</text>
<text text-anchor="middle" x="783.7629" y="-1818.61" font-family="Times,serif" font-size="14.00" fill="#000000">Magister artium Friedrich-Schiller-Universität Jena 1622</text>
</g>
<!-- x127801&#45;&gt;x127734 -->
<g id="edge16" class="edge">
<title>x127801-&gt;x127734</title>
<path fill="none" stroke="#000000" d="M783.7629,-1896.5559C783.7629,-1888.4385 783.7629,-1879.4989 783.7629,-1870.9067"/>
<polygon fill="#000000" stroke="#000000" points="787.263,-1870.6772 783.7629,-1860.6772 780.263,-1870.6772 787.263,-1870.6772"/>
</g>
<!-- x127424 -->
<g id="node18" class="node">
<title>x127424</title>
<ellipse fill="none" stroke="#000000" cx="783.7629" cy="-1736.3788" rx="275.526" ry="29.3315"/>
<text text-anchor="middle" x="783.7629" y="-1740.5788" font-family="Times,serif" font-size="14.00" fill="#000000">Erasmus Schmidt</text>
<text text-anchor="middle" x="783.7629" y="-1723.7788" font-family="Times,serif" font-size="14.00" fill="#000000">Magister artium Martin-Luther-Universität Halle-Wittenberg 1592</text>
</g>
<!-- x127734&#45;&gt;x127424 -->
<g id="edge17" class="edge">
<title>x127734-&gt;x127424</title>
<path fill="none" stroke="#000000" d="M783.7629,-1801.7247C783.7629,-1793.6072 783.7629,-1784.6676 783.7629,-1776.0755"/>
<polygon fill="#000000" stroke="#000000" points="787.263,-1775.8459 783.7629,-1765.8459 780.263,-1775.8459 787.263,-1775.8459"/>
</g>
<!-- x127898 -->
<g id="node19" class="node">
<title>x127898</title>
<ellipse fill="none" stroke="#000000" cx="658.7629" cy="-1641.5475" rx="176.6331" ry="29.3315"/>
<text text-anchor="middle" x="658.7629" y="-1645.7475" font-family="Times,serif" font-size="14.00" fill="#000000">Sethus Calvisius</text>
<text text-anchor="middle" x="658.7629" y="-1628.9475" font-family="Times,serif" font-size="14.00" fill="#000000">Magister artium Universität Leipzig 1582</text>
</g>
<!-- x127424&#45;&gt;x127898 -->
<g id="edge18" class="edge">
<title>x127424-&gt;x127898</title>
<path fill="none" stroke="#000000" d="M745.2388,-1707.1525C732.5261,-1697.508 718.2536,-1686.6801 705.0241,-1676.6435"/>
<polygon fill="#000000" stroke="#000000" points="707.0271,-1673.7699 696.9449,-1670.5143 702.7963,-1679.3467 707.0271,-1673.7699"/>
</g>
<!-- x127942 -->
<g id="node20" class="node">
<title>x127942</title>
<ellipse fill="none" stroke="#000000" cx="909.7629" cy="-1641.5475" rx="56.2617" ry="29.3315"/>
<text text-anchor="middle" x="909.7629" y="-1645.7475" font-family="Times,serif" font-size="14.00" fill="#000000">Petrus Otto</text>
<text text-anchor="middle" x="909.7629" y="-1628.9475" font-family="Times,serif" font-size="14.00" fill="#000000">  </text>
</g>
<!-- x127424&#45;&gt;x127942 -->
<g id="edge19" class="edge">
<title>x127424-&gt;x127942</title>
<path fill="none" stroke="#000000" d="M822.5952,-1707.1525C837.4816,-1695.9485 854.49,-1683.1474 869.507,-1671.8452"/>
<polygon fill="#000000" stroke="#000000" points="871.7336,-1674.55 877.6188,-1665.7401 867.5241,-1668.9571 871.7336,-1674.55"/>
</g>
<!-- x127864 -->
<g id="node21" class="node">
<title>x127864</title>
<ellipse fill="none" stroke="#000000" cx="392.7629" cy="-1546.7162" rx="249.8445" ry="29.3315"/>
<text text-anchor="middle" x="392.7629" y="-1550.9162" font-family="Times,serif" font-size="14.00" fill="#000000">Nikolaus Selnecker</text>
<text text-anchor="middle" x="392.7629" y="-1534.1162" font-family="Times,serif" font-size="14.00" fill="#000000">Dr. theol. Martin-Luther-Universität Halle-Wittenberg 1570</text>
</g>
<!-- x127898&#45;&gt;x127864 -->
<g id="edge20" class="edge">
<title>x127898-&gt;x127864</title>
<path fill="none" stroke="#000000" d="M583.9592,-1614.8793C551.9315,-1603.4612 514.2955,-1590.0436 480.9246,-1578.1466"/>
<polygon fill="#000000" stroke="#000000" points="481.7711,-1574.7327 471.1764,-1574.6713 479.4204,-1581.3262 481.7711,-1574.7327"/>
</g>
<!-- x127790 -->
<g id="node22" class="node">
<title>x127790</title>
<ellipse fill="none" stroke="#000000" cx="924.7629" cy="-1546.7162" rx="263.8711" ry="29.3315"/>
<text text-anchor="middle" x="924.7629" y="-1550.9162" font-family="Times,serif" font-size="14.00" fill="#000000">Moritz Valentin Steinmetz</text>
<text text-anchor="middle" x="924.7629" y="-1534.1162" font-family="Times,serif" font-size="14.00" fill="#000000">Magister artium, Medicinae Dr. Universität Leipzig 1550, 1567</text>
</g>
<!-- x127898&#45;&gt;x127790 -->
<g id="edge21" class="edge">
<title>x127898-&gt;x127790</title>
<path fill="none" stroke="#000000" d="M733.5666,-1614.8793C765.4543,-1603.511 802.9017,-1590.1607 836.1638,-1578.3025"/>
<polygon fill="#000000" stroke="#000000" points="837.6382,-1581.4927 845.8822,-1574.8378 835.2875,-1574.8992 837.6382,-1581.4927"/>
</g>
<!-- x126827 -->
<g id="node23" class="node">
<title>x126827</title>
<ellipse fill="none" stroke="#000000" cx="736.7629" cy="-1451.8849" rx="275.526" ry="29.3315"/>
<text text-anchor="middle" x="736.7629" y="-1456.0849" font-family="Times,serif" font-size="14.00" fill="#000000">Georg Joachim von Leuchen Rheticus</text>
<text text-anchor="middle" x="736.7629" y="-1439.2849" font-family="Times,serif" font-size="14.00" fill="#000000">Magister artium Martin-Luther-Universität Halle-Wittenberg 1535</text>
</g>
<!-- x127790&#45;&gt;x126827 -->
<g id="edge22" class="edge">
<title>x127790-&gt;x126827</title>
<path fill="none" stroke="#000000" d="M867.591,-1517.8774C847.2647,-1507.6244 824.2095,-1495.9949 803.1762,-1485.3852"/>
<polygon fill="#000000" stroke="#000000" points="804.4915,-1482.1287 793.9867,-1480.7499 801.3389,-1488.3786 804.4915,-1482.1287"/>
</g>
<!-- x184935 -->
<g id="node24" class="node">
<title>x184935</title>
<ellipse fill="none" stroke="#000000" cx="1112.7629" cy="-1451.8849" rx="82.5277" ry="29.3315"/>
<text text-anchor="middle" x="1112.7629" y="-1456.0849" font-family="Times,serif" font-size="14.00" fill="#000000">Johann Hoffmann</text>
<text text-anchor="middle" x="1112.7629" y="-1439.2849" font-family="Times,serif" font-size="14.00" fill="#000000">  </text>
</g>
<!-- x127790&#45;&gt;x184935 -->
<g id="edge23" class="edge">
<title>x127790-&gt;x184935</title>
<path fill="none" stroke="#000000" d="M981.9348,-1517.8774C1005.3956,-1506.0433 1032.4918,-1492.3754 1055.9186,-1480.5584"/>
<polygon fill="#000000" stroke="#000000" points="1057.6846,-1483.5877 1065.0367,-1475.959 1054.532,-1477.3378 1057.6846,-1483.5877"/>
</g>
<!-- x126730 -->
<g id="node25" class="node">
<title>x126730</title>
<ellipse fill="none" stroke="#000000" cx="275.7629" cy="-1357.0536" rx="275.526" ry="29.3315"/>
<text text-anchor="middle" x="275.7629" y="-1361.2536" font-family="Times,serif" font-size="14.00" fill="#000000">Johannes Volmar</text>
<text text-anchor="middle" x="275.7629" y="-1344.4536" font-family="Times,serif" font-size="14.00" fill="#000000">Magister artium Martin-Luther-Universität Halle-Wittenberg 1515</text>
</g>
<!-- x126827&#45;&gt;x126730 -->
<g id="edge24" class="edge">
<title>x126827-&gt;x126730</title>
<path fill="none" stroke="#000000" d="M609.5723,-1425.7208C548.4784,-1413.1533 475.176,-1398.0745 412.8441,-1385.2523"/>
<polygon fill="#000000" stroke="#000000" points="413.4381,-1381.8013 402.938,-1383.2145 412.0276,-1388.6577 413.4381,-1381.8013"/>
</g>
<!-- x126177 -->
<g id="node26" class="node">
<title>x126177</title>
<ellipse fill="none" stroke="#000000" cx="1198.7629" cy="-1357.0536" rx="629.1517" ry="29.3315"/>
<text text-anchor="middle" x="1198.7629" y="-1361.2536" font-family="Times,serif" font-size="14.00" fill="#000000">Nicolaus (Mikołaj Kopernik) Copernicus</text>
<text text-anchor="middle" x="1198.7629" y="-1344.4536" font-family="Times,serif" font-size="14.00" fill="#000000">Juris utriusque Doctor Università di Bologna and Università degli Studi di Padova and Uniwersytet Jagielloński and Università degli Studi di Ferrara 1499</text>
</g>
<!-- x126827&#45;&gt;x126177 -->
<g id="edge25" class="edge">
<title>x126827-&gt;x126177</title>
<path fill="none" stroke="#000000" d="M864.2294,-1425.7208C921.4082,-1413.9841 989.2579,-1400.0571 1048.8582,-1387.8234"/>
<polygon fill="#000000" stroke="#000000" points="1049.6401,-1391.236 1058.7321,-1385.7967 1048.2325,-1384.379 1049.6401,-1391.236"/>
</g>
<!-- x126724 -->
<g id="node27" class="node">
<title>x126724</title>
<ellipse fill="none" stroke="#000000" cx="275.7629" cy="-1262.2223" rx="275.526" ry="29.3315"/>
<text text-anchor="middle" x="275.7629" y="-1266.4223" font-family="Times,serif" font-size="14.00" fill="#000000">Bonifazius Erasmi</text>
<text text-anchor="middle" x="275.7629" y="-1249.6223" font-family="Times,serif" font-size="14.00" fill="#000000">Magister artium Martin-Luther-Universität Halle-Wittenberg 1509</text>
</g>
<!-- x126730&#45;&gt;x126724 -->
<g id="edge26" class="edge">
<title>x126730-&gt;x126724</title>
<path fill="none" stroke="#000000" d="M275.7629,-1327.5682C275.7629,-1319.4508 275.7629,-1310.5112 275.7629,-1301.919"/>
<polygon fill="#000000" stroke="#000000" points="279.263,-1301.6895 275.7629,-1291.6895 272.263,-1301.6895 279.263,-1301.6895"/>
</g>
<!-- x126113 -->
<g id="node28" class="node">
<title>x126113</title>
<ellipse fill="none" stroke="#000000" cx="1009.7629" cy="-1262.2223" rx="250.9986" ry="29.3315"/>
<text text-anchor="middle" x="1009.7629" y="-1266.4223" font-family="Times,serif" font-size="14.00" fill="#000000">Leonhard (Leonard Vitreatoris z Dobczyc) von Dobschütz</text>
<text text-anchor="middle" x="1009.7629" y="-1249.6223" font-family="Times,serif" font-size="14.00" fill="#000000">Magister artium Uniwersytet Jagielloński 1489</text>
</g>
<!-- x126177&#45;&gt;x126113 -->
<g id="edge27" class="edge">
<title>x126177-&gt;x126113</title>
<path fill="none" stroke="#000000" d="M1140.2564,-1327.6978C1119.9523,-1317.5102 1097.0419,-1306.0148 1076.1486,-1295.5316"/>
<polygon fill="#000000" stroke="#000000" points="1077.5283,-1292.308 1067.0206,-1290.9516 1074.389,-1298.5646 1077.5283,-1292.308"/>
</g>
<!-- x126112 -->
<g id="node29" class="node">
<title>x126112</title>
<ellipse fill="none" stroke="#000000" cx="1445.7629" cy="-1262.2223" rx="166.8113" ry="29.3315"/>
<text text-anchor="middle" x="1445.7629" y="-1266.4223" font-family="Times,serif" font-size="14.00" fill="#000000">Domenico Maria Novara da Ferrara</text>
<text text-anchor="middle" x="1445.7629" y="-1249.6223" font-family="Times,serif" font-size="14.00" fill="#000000"> Università degli Studi di Firenze 1483</text>
</g>
<!-- x126177&#45;&gt;x126112 -->
<g id="edge28" class="edge">
<title>x126177-&gt;x126112</title>
<path fill="none" stroke="#000000" d="M1274.8865,-1327.8273C1303.9208,-1316.6801 1337.0728,-1303.952 1366.4009,-1292.692"/>
<polygon fill="#000000" stroke="#000000" points="1367.6975,-1295.9433 1375.7786,-1289.0916 1365.1885,-1289.4084 1367.6975,-1295.9433"/>
</g>
<!-- x126109 -->
<g id="node30" class="node">
<title>x126109</title>
<ellipse fill="none" stroke="#000000" cx="1273.7629" cy="-1167.3911" rx="264.5242" ry="29.3315"/>
<text text-anchor="middle" x="1273.7629" y="-1171.5911" font-family="Times,serif" font-size="14.00" fill="#000000">Johannes Müller Regiomontanus</text>
<text text-anchor="middle" x="1273.7629" y="-1154.7911" font-family="Times,serif" font-size="14.00" fill="#000000">Magister artium Universität Leipzig and Universität Wien 1457</text>
</g>
<!-- x126112&#45;&gt;x126109 -->
<g id="edge29" class="edge">
<title>x126112-&gt;x126109</title>
<path fill="none" stroke="#000000" d="M1394.6229,-1234.0266C1375.9025,-1223.7052 1354.5293,-1211.9212 1335.0145,-1201.1618"/>
<polygon fill="#000000" stroke="#000000" points="1336.6423,-1198.0626 1326.1952,-1196.2994 1333.2625,-1204.1926 1336.6423,-1198.0626"/>
</g>
<!-- x126888 -->
<g id="node31" class="node">
<title>x126888</title>
<ellipse fill="none" stroke="#000000" cx="1617.7629" cy="-1167.3911" rx="61.1392" ry="29.3315"/>
<text text-anchor="middle" x="1617.7629" y="-1171.5911" font-family="Times,serif" font-size="14.00" fill="#000000">Luca Pacioli</text>
<text text-anchor="middle" x="1617.7629" y="-1154.7911" font-family="Times,serif" font-size="14.00" fill="#000000">  </text>
</g>
<!-- x126112&#45;&gt;x126888 -->
<g id="edge30" class="edge">
<title>x126112-&gt;x126888</title>
<path fill="none" stroke="#000000" d="M1496.9029,-1234.0266C1519.5317,-1221.5503 1546.0366,-1206.937 1568.4499,-1194.5795"/>
<polygon fill="#000000" stroke="#000000" points="1570.393,-1197.505 1577.4603,-1189.6117 1567.0132,-1191.3749 1570.393,-1197.505"/>
</g>
<!-- x126087 -->
<g id="node32" class="node">
<title>x126087</title>
<ellipse fill="none" stroke="#000000" cx="1138.7629" cy="-1072.5598" rx="168.0355" ry="29.3315"/>
<text text-anchor="middle" x="1138.7629" y="-1076.7598" font-family="Times,serif" font-size="14.00" fill="#000000">Georg von Peuerbach</text>
<text text-anchor="middle" x="1138.7629" y="-1059.9598" font-family="Times,serif" font-size="14.00" fill="#000000">Magister artium Universität Wien 1440</text>
</g>
<!-- x126109&#45;&gt;x126087 -->
<g id="edge31" class="edge">
<title>x126109-&gt;x126087</title>
<path fill="none" stroke="#000000" d="M1232.1569,-1138.1647C1218.1681,-1128.3383 1202.4306,-1117.2834 1187.9174,-1107.0886"/>
<polygon fill="#000000" stroke="#000000" points="1189.731,-1104.0853 1179.5363,-1101.2012 1185.7073,-1109.8134 1189.731,-1104.0853"/>
</g>
<!-- x131561 -->
<g id="node33" class="node">
<title>x131561</title>
<ellipse fill="none" stroke="#000000" cx="1418.7629" cy="-1072.5598" rx="84.9494" ry="29.3315"/>
<text text-anchor="middle" x="1418.7629" y="-1076.7598" font-family="Times,serif" font-size="14.00" fill="#000000">Basilios Bessarion</text>
<text text-anchor="middle" x="1418.7629" y="-1059.9598" font-family="Times,serif" font-size="14.00" fill="#000000"> Mystras 1436</text>
</g>
<!-- x126109&#45;&gt;x131561 -->
<g id="edge32" class="edge">
<title>x126109-&gt;x131561</title>
<path fill="none" stroke="#000000" d="M1318.4508,-1138.1647C1334.8903,-1127.4131 1353.5786,-1115.1909 1370.3325,-1104.2337"/>
<polygon fill="#000000" stroke="#000000" points="1372.4418,-1107.0362 1378.8952,-1098.6336 1368.6104,-1101.1779 1372.4418,-1107.0362"/>
</g>
<!-- x126887 -->
<g id="node34" class="node">
<title>x126887</title>
<ellipse fill="none" stroke="#000000" cx="1121.7629" cy="-977.7285" rx="168.0355" ry="29.3315"/>
<text text-anchor="middle" x="1121.7629" y="-981.9285" font-family="Times,serif" font-size="14.00" fill="#000000">Johannes von Gmunden</text>
<text text-anchor="middle" x="1121.7629" y="-965.1285" font-family="Times,serif" font-size="14.00" fill="#000000">Magister artium Universität Wien 1406</text>
</g>
<!-- x126087&#45;&gt;x126887 -->
<g id="edge33" class="edge">
<title>x126087-&gt;x126887</title>
<path fill="none" stroke="#000000" d="M1133.4772,-1043.0744C1132.006,-1034.8678 1130.3842,-1025.8208 1128.8284,-1017.1421"/>
<polygon fill="#000000" stroke="#000000" points="1132.255,-1016.4211 1127.0453,-1007.1956 1125.3649,-1017.6563 1132.255,-1016.4211"/>
</g>
<!-- x131575 -->
<g id="node35" class="node">
<title>x131575</title>
<ellipse fill="none" stroke="#000000" cx="1427.7629" cy="-977.7285" rx="120.3849" ry="29.3315"/>
<text text-anchor="middle" x="1427.7629" y="-981.9285" font-family="Times,serif" font-size="14.00" fill="#000000">Georgios Plethon Gemistos</text>
<text text-anchor="middle" x="1427.7629" y="-965.1285" font-family="Times,serif" font-size="14.00" fill="#000000">  1380, 1393</text>
</g>
<!-- x131561&#45;&gt;x131575 -->
<g id="edge34" class="edge">
<title>x131561-&gt;x131575</title>
<path fill="none" stroke="#000000" d="M1421.5612,-1043.0744C1422.3316,-1034.957 1423.18,-1026.0173 1423.9954,-1017.4252"/>
<polygon fill="#000000" stroke="#000000" points="1427.5057,-1017.4816 1424.9663,-1007.1956 1420.537,-1016.8202 1427.5057,-1017.4816"/>
</g>
<!-- x127264 -->
<g id="node36" class="node">
<title>x127264</title>
<ellipse fill="none" stroke="#000000" cx="1121.7629" cy="-882.8972" rx="175.6382" ry="29.3315"/>
<text text-anchor="middle" x="1121.7629" y="-887.0972" font-family="Times,serif" font-size="14.00" fill="#000000">Heinrich von Langenstein</text>
<text text-anchor="middle" x="1121.7629" y="-870.2972" font-family="Times,serif" font-size="14.00" fill="#000000">Magister artium Université de Paris 1363</text>
</g>
<!-- x126887&#45;&gt;x127264 -->
<g id="edge35" class="edge">
<title>x126887-&gt;x127264</title>
<path fill="none" stroke="#000000" d="M1121.7629,-948.2431C1121.7629,-940.1257 1121.7629,-931.186 1121.7629,-922.5939"/>
<polygon fill="#000000" stroke="#000000" points="1125.263,-922.3643 1121.7629,-912.3643 1118.263,-922.3644 1125.263,-922.3643"/>
</g>
<!-- x134780 -->
<g id="node37" class="node">
<title>x134780</title>
<ellipse fill="none" stroke="#000000" cx="1416.7629" cy="-882.8972" rx="90.4239" ry="29.3315"/>
<text text-anchor="middle" x="1416.7629" y="-887.0972" font-family="Times,serif" font-size="14.00" fill="#000000">Demetrios Kydones</text>
<text text-anchor="middle" x="1416.7629" y="-870.2972" font-family="Times,serif" font-size="14.00" fill="#000000">  </text>
</g>
<!-- x131575&#45;&gt;x134780 -->
<g id="edge36" class="edge">
<title>x131575-&gt;x134780</title>
<path fill="none" stroke="#000000" d="M1424.3427,-948.2431C1423.3908,-940.0365 1422.3414,-930.9895 1421.3347,-922.3108"/>
<polygon fill="#000000" stroke="#000000" points="1424.8099,-921.8944 1420.1809,-912.3643 1417.8566,-922.7011 1424.8099,-921.8944"/>
</g>
<!-- x134781 -->
<g id="node38" class="node">
<title>x134781</title>
<ellipse fill="none" stroke="#000000" cx="1606.7629" cy="-882.8972" rx="81.9289" ry="29.3315"/>
<text text-anchor="middle" x="1606.7629" y="-887.0972" font-family="Times,serif" font-size="14.00" fill="#000000">Elissaeus Judaeus</text>
<text text-anchor="middle" x="1606.7629" y="-870.2972" font-family="Times,serif" font-size="14.00" fill="#000000">  </text>
</g>
<!-- x131575&#45;&gt;x134781 -->
<g id="edge37" class="edge">
<title>x131575-&gt;x134781</title>
<path fill="none" stroke="#000000" d="M1478.5783,-950.8073C1501.3901,-938.722 1528.3538,-924.437 1551.6512,-912.0945"/>
<polygon fill="#000000" stroke="#000000" points="1553.5188,-915.0659 1560.7168,-907.2917 1550.2418,-908.8804 1553.5188,-915.0659"/>
</g>
<!-- x199357 -->
<g id="node39" class="node">
<title>x199357</title>
<ellipse fill="none" stroke="#000000" cx="1121.7629" cy="-788.0659" rx="70.9144" ry="29.3315"/>
<text text-anchor="middle" x="1121.7629" y="-792.2659" font-family="Times,serif" font-size="14.00" fill="#000000">Nicole Oresme</text>
<text text-anchor="middle" x="1121.7629" y="-775.4659" font-family="Times,serif" font-size="14.00" fill="#000000">  </text>
</g>
<!-- x127264&#45;&gt;x199357 -->
<g id="edge38" class="edge">
<title>x127264-&gt;x199357</title>
<path fill="none" stroke="#000000" d="M1121.7629,-853.4118C1121.7629,-845.2944 1121.7629,-836.3548 1121.7629,-827.7626"/>
<polygon fill="#000000" stroke="#000000" points="1125.263,-827.533 1121.7629,-817.5331 1118.263,-827.5331 1125.263,-827.533"/>
</g>
<!-- x146365 -->
<g id="node40" class="node">
<title>x146365</title>
<ellipse fill="none" stroke="#000000" cx="1416.7629" cy="-788.0659" rx="73.9369" ry="29.3315"/>
<text text-anchor="middle" x="1416.7629" y="-792.2659" font-family="Times,serif" font-size="14.00" fill="#000000">Nilos Kabasilas</text>
<text text-anchor="middle" x="1416.7629" y="-775.4659" font-family="Times,serif" font-size="14.00" fill="#000000">  1363</text>
</g>
<!-- x134780&#45;&gt;x146365 -->
<g id="edge39" class="edge">
<title>x134780-&gt;x146365</title>
<path fill="none" stroke="#000000" d="M1416.7629,-853.4118C1416.7629,-845.2944 1416.7629,-836.3548 1416.7629,-827.7626"/>
<polygon fill="#000000" stroke="#000000" points="1420.263,-827.533 1416.7629,-817.5331 1413.263,-827.5331 1420.263,-827.533"/>
</g>
<!-- x176844 -->
<g id="node41" class="node">
<title>x176844</title>
<ellipse fill="none" stroke="#000000" cx="1416.7629" cy="-693.2346" rx="79.5164" ry="29.3315"/>
<text text-anchor="middle" x="1416.7629" y="-697.4346" font-family="Times,serif" font-size="14.00" fill="#000000">Gregory Palamas</text>
<text text-anchor="middle" x="1416.7629" y="-680.6346" font-family="Times,serif" font-size="14.00" fill="#000000">  </text>
</g>
<!-- x146365&#45;&gt;x176844 -->
<g id="edge40" class="edge">
<title>x146365-&gt;x176844</title>
<path fill="none" stroke="#000000" d="M1416.7629,-758.5805C1416.7629,-750.4631 1416.7629,-741.5235 1416.7629,-732.9313"/>
<polygon fill="#000000" stroke="#000000" points="1420.263,-732.7017 1416.7629,-722.7018 1413.263,-732.7018 1420.263,-732.7017"/>
</g>
<!-- x184631 -->
<g id="node42" class="node">
<title>x184631</title>
<ellipse fill="none" stroke="#000000" cx="1416.7629" cy="-598.4033" rx="95.9103" ry="29.3315"/>
<text text-anchor="middle" x="1416.7629" y="-602.6033" font-family="Times,serif" font-size="14.00" fill="#000000">Theodore Metochites</text>
<text text-anchor="middle" x="1416.7629" y="-585.8033" font-family="Times,serif" font-size="14.00" fill="#000000">  1315</text>
</g>
<!-- x176844&#45;&gt;x184631 -->
<g id="edge41" class="edge">
<title>x176844-&gt;x184631</title>
<path fill="none" stroke="#000000" d="M1416.7629,-663.7492C1416.7629,-655.6318 1416.7629,-646.6922 1416.7629,-638.1001"/>
<polygon fill="#000000" stroke="#000000" points="1420.263,-637.8705 1416.7629,-627.8705 1413.263,-637.8705 1420.263,-637.8705"/>
</g>
<!-- x184632 -->
<g id="node43" class="node">
<title>x184632</title>
<ellipse fill="none" stroke="#000000" cx="1416.7629" cy="-503.5721" rx="84.9395" ry="29.3315"/>
<text text-anchor="middle" x="1416.7629" y="-507.7721" font-family="Times,serif" font-size="14.00" fill="#000000">Manuel Bryennios</text>
<text text-anchor="middle" x="1416.7629" y="-490.9721" font-family="Times,serif" font-size="14.00" fill="#000000">  </text>
</g>
<!-- x184631&#45;&gt;x184632 -->
<g id="edge42" class="edge">
<title>x184631-&gt;x184632</title>
<path fill="none" stroke="#000000" d="M1416.7629,-568.918C1416.7629,-560.8005 1416.7629,-551.8609 1416.7629,-543.2688"/>
<polygon fill="#000000" stroke="#000000" points="1420.263,-543.0392 1416.7629,-533.0392 1413.263,-543.0392 1420.263,-543.0392"/>
</g>
<!-- x201288 -->
<g id="node44" class="node">
<title>x201288</title>
<ellipse fill="none" stroke="#000000" cx="1416.7629" cy="-408.7408" rx="128.3072" ry="29.3315"/>
<text text-anchor="middle" x="1416.7629" y="-412.9408" font-family="Times,serif" font-size="14.00" fill="#000000">Gregory Chioniadis</text>
<text text-anchor="middle" x="1416.7629" y="-396.1408" font-family="Times,serif" font-size="14.00" fill="#000000"> Ilkhans Court at Tabriz 1296</text>
</g>
<!-- x184632&#45;&gt;x201288 -->
<g id="edge43" class="edge">
<title>x184632-&gt;x201288</title>
<path fill="none" stroke="#000000" d="M1416.7629,-474.0867C1416.7629,-465.9693 1416.7629,-457.0296 1416.7629,-448.4375"/>
<polygon fill="#000000" stroke="#000000" points="1420.263,-448.2079 1416.7629,-438.2079 1413.263,-448.208 1420.263,-448.2079"/>
</g>
<!-- x204293 -->
<g id="node45" class="node">
<title>x204293</title>
<ellipse fill="none" stroke="#000000" cx="1416.7629" cy="-313.9095" rx="130.8112" ry="29.3315"/>
<text text-anchor="middle" x="1416.7629" y="-318.1095" font-family="Times,serif" font-size="14.00" fill="#000000">Shams al‐Dīn al‐Bukhārī</text>
<text text-anchor="middle" x="1416.7629" y="-301.3095" font-family="Times,serif" font-size="14.00" fill="#000000"> Maragheh Observatory </text>
</g>
<!-- x201288&#45;&gt;x204293 -->
<g id="edge44" class="edge">
<title>x201288-&gt;x204293</title>
<path fill="none" stroke="#000000" d="M1416.7629,-379.2554C1416.7629,-371.138 1416.7629,-362.1983 1416.7629,-353.6062"/>
<polygon fill="#000000" stroke="#000000" points="1420.263,-353.3766 1416.7629,-343.3766 1413.263,-353.3767 1420.263,-353.3766"/>
</g>
<!-- x217509 -->
<g id="node46" class="node">
<title>x217509</title>
<ellipse fill="none" stroke="#000000" cx="1416.7629" cy="-219.0782" rx="115.5093" ry="29.3315"/>
<text text-anchor="middle" x="1416.7629" y="-223.2782" font-family="Times,serif" font-size="14.00" fill="#000000">Nasir al-Dīn al-Ṭūsī</text>
<text text-anchor="middle" x="1416.7629" y="-206.4782" font-family="Times,serif" font-size="14.00" fill="#000000">  </text>
</g>
<!-- x204293&#45;&gt;x217509 -->
<g id="edge45" class="edge">
<title>x204293-&gt;x217509</title>
<path fill="none" stroke="#000000" d="M1416.7629,-284.4241C1416.7629,-276.3067 1416.7629,-267.3671 1416.7629,-258.7749"/>
<polygon fill="#000000" stroke="#000000" points="1420.263,-258.5453 1416.7629,-248.5454 1413.263,-258.5454 1420.263,-258.5453"/>
</g>
<!-- x223724 -->
<g id="node47" class="node">
<title>x223724</title>
<ellipse fill="none" stroke="#000000" cx="1416.7629" cy="-124.2469" rx="119.7404" ry="29.3315"/>
<text text-anchor="middle" x="1416.7629" y="-128.4469" font-family="Times,serif" font-size="14.00" fill="#000000">Kamāl al-Dīn Ibn Yūnus</text>
<text text-anchor="middle" x="1416.7629" y="-111.6469" font-family="Times,serif" font-size="14.00" fill="#000000">  </text>
</g>
<!-- x217509&#45;&gt;x223724 -->
<g id="edge46" class="edge">
<title>x217509-&gt;x223724</title>
<path fill="none" stroke="#000000" d="M1416.7629,-189.5928C1416.7629,-181.4754 1416.7629,-172.5358 1416.7629,-163.9436"/>
<polygon fill="#000000" stroke="#000000" points="1420.263,-163.714 1416.7629,-153.7141 1413.263,-163.7141 1420.263,-163.714"/>
</g>
<!-- x230926 -->
<g id="node48" class="node">
<title>x230926</title>
<ellipse fill="none" stroke="#000000" cx="1416.7629" cy="-29.4156" rx="120.2997" ry="29.3315"/>
<text text-anchor="middle" x="1416.7629" y="-33.6156" font-family="Times,serif" font-size="14.00" fill="#000000">Sharaf al-Dīn al-Ṭūsī</text>
<text text-anchor="middle" x="1416.7629" y="-16.8156" font-family="Times,serif" font-size="14.00" fill="#000000">  </text>
</g>
<!-- x223724&#45;&gt;x230926 -->
<g id="edge47" class="edge">
<title>x223724-&gt;x230926</title>
<path fill="none" stroke="#000000" d="M1416.7629,-94.7615C1416.7629,-86.6441 1416.7629,-77.7045 1416.7629,-69.1123"/>
<polygon fill="#000000" stroke="#000000" points="1420.263,-68.8828 1416.7629,-58.8828 1413.263,-68.8828 1420.263,-68.8828"/>
</g>
</g>
</svg>